<svg width="24" height="24" viewBox="0 0 24 24" fill="none" xmlns="http://www.w3.org/2000/svg">
<path d="M18.3531 15.9999C17.9041 16.0016 17.4601 16.094 17.0477 16.2716C16.6352 16.4492 16.263 16.7082 15.9531 17.0333L7.82647 12.9666C8.02638 12.3604 8.02638 11.7061 7.82647 11.0999L15.9665 6.95992C16.5495 7.57434 17.3402 7.95002 18.1848 8.01396C19.0294 8.07789 19.8676 7.8255 20.5365 7.30585C21.2054 6.78619 21.6572 6.0364 21.8041 5.2022C21.9509 4.368 21.7824 3.50899 21.3312 2.79214C20.88 2.07529 20.1784 1.5518 19.3627 1.32343C18.5471 1.09506 17.6756 1.17811 16.9178 1.55646C16.16 1.93481 15.5699 2.58141 15.2622 3.37059C14.9546 4.15977 14.9513 5.03515 15.2531 5.82658L7.19314 9.92658C6.75783 9.39422 6.16853 9.00951 5.50601 8.8252C4.84349 8.64089 4.14018 8.66601 3.49249 8.89709C2.8448 9.12818 2.28444 9.55394 1.88821 10.116C1.49199 10.6781 1.2793 11.3489 1.2793 12.0366C1.2793 12.7243 1.49199 13.3951 1.88821 13.9572C2.28444 14.5192 2.8448 14.945 3.49249 15.1761C4.14018 15.4072 4.84349 15.4323 5.50601 15.248C6.16853 15.0637 6.75783 14.679 7.19314 14.1466L15.2331 18.1933C15.0973 18.558 15.0273 18.944 15.0265 19.3333C15.0265 19.9925 15.222 20.637 15.5882 21.1852C15.9545 21.7333 16.4751 22.1606 17.0842 22.4128C17.6933 22.6651 18.3635 22.7312 19.0101 22.6025C19.6567 22.4739 20.2506 22.1564 20.7168 21.6903C21.183 21.2241 21.5005 20.6302 21.6291 19.9836C21.7577 19.3369 21.6917 18.6667 21.4394 18.0576C21.1871 17.4486 20.7599 16.928 20.2117 16.5617C19.6635 16.1954 19.0191 15.9999 18.3598 15.9999H18.3531Z" fill="white"/>
</svg>
